{"title":"Goon [2011]eng_avi","uid":7335706,"size":2329175418,"categoryP":"video","categoryS":"movies","magnet":"?xt=urn:btih:f63432d43d61f7fee5f118941fe8a1fc8d44fec5&amp;dn=Goon+%5B2011%5Deng_avi&amp;tr=udp%3A%2F%2Ftracker.openbittorrent.com%3A80&amp;tr=udp%3A%2F%2Fopen.demonii.com%3A1337&amp;tr=udp%3A%2F%2Ftracker.coppersurfer.tk%3A6969&amp;tr=udp%3A%2F%2Fexodus.desync.com%3A6969","seeders":1,"leechers":0,"uploader":"Aprelka","files":-1,"time":1339027719,"description":"\nGeneral\nComplete name                    : Goon[2001]en.avi\nFormat                           : AVI\nFormat/Info                      : Audio Video Interleave\nFormat profile                   : OpenDML\nFile size                        : 2.17 GiB\nDuration                         : 1h 31mn\nOverall bit rate                 : 3 394 Kbps\nWriting library                  : VirtualDub build 32842/release\n\nVideo\nID                               : 0\nFormat                           : MPEG-4 Visual\nCodec ID                         : DX50\nCodec ID/Hint                    : DivX 5\nDuration                         : 1h 31mn\nBit rate                         : 2 998 Kbps\nWidth                            : 720 pixels\nHeight                           : 404 pixels\nDisplay aspect ratio             : 16:9\nFrame rate                       : 23.976 fps\nResolution                       : 8 bits\nColorimetry                      : 4:2:0\nScan type                        : Progressive\nBits/(Pixel*Frame)               : 0.430\nStream size                      : 1.92 GiB (88%)\nWriting library                  : XviD 64\n\nAudio\nID                               : 1\nFormat                           : AC-3\nFormat/Info                      : Audio Coding 3\nCodec ID                         : 2000\nDuration                         : 1h 31mn\nBit rate mode                    : Constant\nBit rate                         : 384 Kbps\nChannel(s)                       : 2 channels\nChannel positions                : Front: L R\nSampling rate                    : 48.0 KHz\nStream size                      : 251 MiB (11%)\nAlignment                        : Aligned on interleaves\nInterleave, duration             : 42 ms (1.00 video frame)\nInterleave, preload duration     : 512 ms\n\n\n","torrent":{"xt":"urn:btih:f63432d43d61f7fee5f118941fe8a1fc8d44fec5","amp;dn":"Goon+%5B2011%5Deng_avi","amp;tr":["udp%3A%2F%2Ftracker.openbittorrent.com%3A80","udp%3A%2F%2Fopen.demonii.com%3A1337","udp%3A%2F%2Ftracker.coppersurfer.tk%3A6969","udp%3A%2F%2Fexodus.desync.com%3A6969"],"infoHash":"f63432d43d61f7fee5f118941fe8a1fc8d44fec5","infoHashBuffer":{"type":"Buffer","data":[246,52,50,212,61,97,247,254,229,241,24,148,31,232,161,252,141,68,254,197]},"announce":[],"urlList":[]}}